<?xml version="1.0" standalone="no"?>

<svg version="1.0" xmlns="http://www.w3.org/2000/svg"
 width="400.000000pt" height="400.000000pt" viewBox="0 0 400.000000 400.000000"
 preserveAspectRatio="xMidYMid meet">

<g transform="translate(0.000000,400.000000) scale(0.100000,-0.100000)"
fill="#000000" stroke="none">
<path d="M1796 3765 c7 -16 3 -18 -37 -12 -30 4 -54 1 -72 -8 -21 -11 -44 -11
-137 0 -138 15 -174 7 -230 -53 -22 -23 -40 -46 -40 -51 0 -5 -9 -13 -20 -16
-11 -4 -31 -17 -43 -29 -13 -13 -27 -25 -33 -27 -18 -8 -94 -112 -94 -130 0
-9 -7 -24 -15 -33 -16 -15 -75 -128 -75 -142 0 -4 -9 -27 -20 -50 -31 -64 -41
-171 -42 -474 0 -25 5 -70 12 -100 14 -65 9 -105 -21 -167 -17 -35 -20 -50
-12 -63 6 -9 11 -79 12 -161 1 -179 8 -220 41 -236 16 -8 28 -9 36 -2 8 7 21
2 40 -16 l29 -26 -38 6 c-37 6 -38 5 -32 -17 8 -27 43 -57 66 -58 25 0 33 -32
13 -47 -27 -19 -41 -16 -63 16 -20 27 -54 45 -65 34 -3 -3 2 -18 11 -33 20
-35 81 -70 120 -70 l30 0 12 -111 c6 -61 19 -142 28 -180 9 -38 13 -72 9 -76
-4 -4 -60 -6 -124 -5 -64 2 -155 0 -200 -4 -83 -6 -85 -7 -145 -59 -34 -28
-84 -64 -112 -79 -126 -70 -148 -136 -106 -324 13 -59 15 -85 7 -90 -17 -10
-53 -24 -278 -103 l-208 -73 0 -348 0 -348 905 0 905 0 0 56 c0 47 3 57 20 61
11 3 20 10 20 16 0 6 6 2 14 -8 14 -19 15 -19 35 -1 26 23 19 36 -20 36 -16 0
-29 5 -29 10 0 6 4 10 9 10 5 0 7 8 4 19 -3 10 0 22 6 25 18 12 12 24 -9 19
-24 -6 -39 39 -20 62 16 20 30 19 46 -2 10 -14 17 -16 31 -7 40 24 60 -21 26
-58 -15 -17 -15 -21 0 -54 11 -23 17 -60 17 -109 l0 -75 1020 0 1020 0 0 174
0 173 -38 27 c-21 14 -92 48 -157 74 -66 27 -147 61 -180 76 -33 15 -103 45
-155 66 -107 43 -217 96 -225 110 -3 5 8 16 25 25 16 8 37 29 46 47 16 30 15
34 -30 152 -88 228 -137 306 -219 345 -76 37 -124 27 -252 -47 l-49 -30 -73
75 -74 75 31 80 c17 43 39 127 48 186 l18 107 34 6 c68 11 110 50 110 102 0
15 13 53 28 85 16 31 34 80 41 107 7 28 22 72 33 99 29 70 23 211 -10 255 -21
29 -22 33 -7 53 24 36 17 43 -11 12 -25 -27 -27 -27 -34 -9 -18 49 -20 122 -5
151 8 16 15 35 15 43 0 7 19 51 41 98 39 78 41 85 25 102 -23 26 -20 41 10 41
21 0 24 -3 19 -21 -10 -31 14 -14 26 19 16 43 -24 159 -71 202 -41 39 -64 76
-55 89 3 5 -13 30 -35 56 -22 25 -43 58 -46 73 -12 55 -16 61 -48 80 -18 11
-42 32 -52 48 -19 28 -66 76 -145 149 -24 22 -64 47 -89 55 -25 8 -70 25 -100
38 -62 27 -114 45 -180 62 -25 7 -47 16 -50 20 -6 9 -48 16 -195 30 -55 5
-117 12 -138 16 -33 6 -37 5 -31 -11z m124 -707 c0 -10 5 -18 10 -18 6 0 10
11 10 25 0 18 5 25 19 25 21 0 33 -22 25 -45 -4 -8 -1 -15 6 -15 7 0 10 -7 6
-15 -3 -10 1 -15 13 -15 21 0 44 -23 34 -33 -3 -4 -1 -7 5 -7 7 0 12 -7 12
-16 0 -10 6 -14 15 -10 8 3 15 1 15 -5 0 -5 21 -23 47 -39 56 -36 72 -61 73
-112 0 -21 5 -38 10 -38 6 0 10 -9 10 -20 0 -26 111 -166 192 -241 46 -44 59
-62 56 -80 l-3 -24 -165 -1 c-252 -2 -303 -17 -295 -87 3 -18 7 -53 10 -79 6
-44 49 -117 62 -104 3 3 37 -12 77 -34 98 -52 167 -66 242 -46 33 9 67 25 80
39 17 19 37 26 86 31 35 4 71 4 80 1 31 -12 34 -88 7 -185 -12 -45 -74 -150
-88 -150 -4 0 -16 -16 -27 -35 -10 -20 -36 -47 -56 -62 -21 -14 -38 -30 -38
-34 0 -5 -13 -9 -28 -9 -33 0 -82 34 -165 114 -33 31 -63 56 -67 56 -5 0 -11
-14 -15 -31 -9 -38 -40 -52 -77 -33 -24 12 -33 12 -78 -6 -67 -27 -106 -25
-175 6 -42 19 -60 23 -68 15 -6 -6 -26 -11 -45 -11 l-35 0 6 -58 c6 -51 3 -63
-19 -95 -23 -35 -57 -51 -51 -25 1 8 -17 12 -55 12 -32 1 -58 2 -58 4 0 2 7
11 16 20 10 9 39 47 66 84 45 62 58 73 80 69 11 -1 21 46 13 58 -11 18 -24 13
-73 -32 -70 -64 -139 -117 -151 -117 -6 0 -19 -5 -29 -11 -14 -9 -23 -6 -48
17 -17 16 -36 39 -43 52 -6 12 -17 22 -23 22 -18 0 -48 32 -48 51 0 10 -6 22
-14 26 -42 24 -132 303 -97 303 6 0 11 9 11 19 0 11 4 21 9 23 4 2 15 23 23
48 l16 45 12 -32 c8 -22 20 -34 40 -38 16 -3 34 -13 41 -21 6 -8 22 -14 35
-14 14 0 39 -16 62 -39 45 -45 91 -57 200 -49 103 8 227 78 252 142 16 44 12
105 -10 136 -30 42 -103 53 -306 46 -222 -8 -226 -8 -236 2 -14 14 31 126 67
166 11 12 32 38 46 57 15 19 52 47 82 63 59 29 70 39 96 85 45 79 59 98 90
128 21 19 49 35 70 38 46 8 83 28 96 52 6 11 16 18 23 15 12 -4 18 32 14 93
-2 23 0 26 8 15 5 -8 10 -23 10 -32z m610 -691 c0 -5 -4 -5 -10 -2 -5 3 -10
14 -10 23 0 15 2 15 10 2 5 -8 10 -19 10 -23z m-1540 -307 c0 -13 -2 -13 -14
0 -15 15 -20 34 -16 60 2 17 29 -37 30 -60z m1259 -384 c45 -29 81 -71 81 -96
0 -13 -11 -19 -42 -24 -23 -4 -51 -14 -60 -23 -17 -15 -20 -14 -46 15 l-29 32
16 60 c9 34 21 60 28 60 8 0 31 -11 52 -24z m-776 -260 c19 -29 75 -56 116
-56 41 0 109 -43 117 -75 3 -14 10 -25 14 -25 5 0 34 -24 64 -53 57 -54 69
-84 41 -107 -21 -17 -19 -37 5 -45 11 -3 20 -10 20 -15 0 -9 -58 -60 -68 -60
-37 1 -162 57 -162 73 0 4 -6 7 -14 7 -12 0 -32 43 -28 61 1 4 -10 10 -23 13
-25 6 -35 26 -13 26 6 0 1 10 -11 21 -17 16 -20 24 -11 29 7 4 9 13 5 19 -4 7
-8 23 -10 37 -1 14 -12 39 -24 55 -12 16 -24 42 -28 59 -3 17 -10 33 -14 36
-5 3 -9 9 -9 15 0 17 17 9 33 -15z m553 -59 c3 -3 3 -14 0 -25 -13 -40 -200
-37 -252 4 -18 13 -17 14 8 8 21 -5 29 -2 34 11 6 15 19 17 106 12 55 -2 102
-7 104 -10z m218 -73 c4 -9 1 -23 -5 -30 -6 -7 -8 -17 -5 -23 8 -13 -27 -23
-49 -15 -13 5 -16 3 -13 -7 3 -8 12 -14 21 -14 8 0 19 -3 22 -7 4 -3 17 -4 30
-2 18 3 24 -1 28 -23 5 -25 -2 -37 -26 -46 -4 -1 -9 -10 -11 -20 -4 -26 -44
-67 -66 -67 -11 0 -20 -6 -20 -13 0 -23 -33 -44 -85 -55 -35 -7 -52 -7 -56 0
-4 6 -11 8 -17 4 -22 -13 -103 -9 -119 7 -15 15 -14 17 12 29 30 13 135 109
135 122 0 10 65 76 76 76 5 0 29 18 53 41 68 62 85 69 95 43z"/>
<path d="M2203 1142 c-8 -5 -8 -12 3 -26 17 -24 27 -16 17 12 -5 13 -13 18
-20 14z"/>
<path d="M1880 195 c0 -9 6 -12 15 -9 8 4 15 10 15 15 0 5 -7 9 -15 9 -8 0
-15 -7 -15 -15z"/>
</g>
</svg>
